<svg width="170" height="48" viewBox="0 0 170 48" fill="none" xmlns="http://www.w3.org/2000/svg">
<path d="M11.0017 30V16.86H13.1617V30H11.0017ZM2.23568 30V16.86H4.39568V30H2.23568ZM3.98168 24.402V22.476H11.4157V24.402H3.98168ZM21.0229 30.324C20.1709 30.324 19.4209 30.186 18.7729 29.91C18.1249 29.622 17.5789 29.244 17.1349 28.776C16.6909 28.308 16.3549 27.78 16.1269 27.192C15.8989 26.592 15.7849 25.974 15.7849 25.338V24.978C15.7849 24.342 15.8989 23.724 16.1269 23.124C16.3669 22.524 16.7089 21.99 17.1529 21.522C17.6089 21.042 18.1609 20.664 18.8089 20.388C19.4569 20.112 20.1949 19.974 21.0229 19.974C21.8509 19.974 22.5829 20.112 23.2189 20.388C23.8669 20.664 24.4189 21.042 24.8749 21.522C25.3309 21.99 25.6729 22.524 25.9009 23.124C26.1409 23.724 26.2609 24.342 26.2609 24.978V25.338C26.2609 25.974 26.1469 26.592 25.9189 27.192C25.6909 27.78 25.3549 28.308 24.9109 28.776C24.4669 29.244 23.9209 29.622 23.2729 29.91C22.6249 30.186 21.8749 30.324 21.0229 30.324ZM21.0229 28.488C21.6829 28.488 22.2469 28.344 22.7149 28.056C23.1829 27.756 23.5369 27.354 23.7769 26.85C24.0289 26.346 24.1549 25.782 24.1549 25.158C24.1549 24.522 24.0289 23.952 23.7769 23.448C23.5249 22.944 23.1649 22.548 22.6969 22.26C22.2289 21.96 21.6709 21.81 21.0229 21.81C20.3749 21.81 19.8169 21.96 19.3489 22.26C18.8809 22.548 18.5209 22.944 18.2689 23.448C18.0169 23.952 17.8909 24.522 17.8909 25.158C17.8909 25.782 18.0109 26.346 18.2509 26.85C18.5029 27.354 18.8629 27.756 19.3309 28.056C19.7989 28.344 20.3629 28.488 21.0229 28.488ZM31.5528 30L33.4428 20.622H36.0528L38.2668 30H36.5388L34.3068 20.676H35.1168L33.1728 30H31.5528ZM30.7248 30V28.29H32.7228V30H30.7248ZM30.0408 30L27.3408 20.298H29.3928L31.9668 30H30.0408ZM37.0248 30V28.29H39.0228V30H37.0248ZM37.8348 30L40.1028 20.298H42.0288L39.6528 30H37.8348ZM48.6478 30V20.298H50.7538V30H48.6478ZM47.2258 21.918V20.298H50.7538V21.918H47.2258ZM49.3318 18.948C48.8998 18.948 48.5758 18.834 48.3598 18.606C48.1558 18.378 48.0538 18.084 48.0538 17.724C48.0538 17.376 48.1558 17.088 48.3598 16.86C48.5758 16.62 48.8998 16.5 49.3318 16.5C49.7758 16.5 50.0998 16.62 50.3038 16.86C50.5198 17.088 50.6278 17.376 50.6278 17.724C50.6278 18.084 50.5198 18.378 50.3038 18.606C50.0998 18.834 49.7758 18.948 49.3318 18.948ZM57.8707 30.108C57.0667 30.108 56.3887 30 55.8367 29.784C55.2847 29.568 54.8647 29.196 54.5767 28.668C54.3007 28.14 54.1627 27.426 54.1627 26.526V17.472H56.1607V26.706C56.1607 27.21 56.2927 27.6 56.5567 27.876C56.8327 28.14 57.2167 28.272 57.7087 28.272H59.3287V30.108H57.8707ZM52.5607 21.864V20.298H59.3287V21.864H52.5607ZM68.6778 30L70.5678 20.622H73.1778L75.3918 30H73.6638L71.4318 20.676H72.2418L70.2978 30H68.6778ZM67.8498 30V28.29H69.8478V30H67.8498ZM67.1658 30L64.4658 20.298H66.5178L69.0918 30H67.1658ZM74.1498 30V28.29H76.1478V30H74.1498ZM74.9598 30L77.2278 20.298H79.1538L76.7778 30H74.9598ZM85.6752 30.324C84.8232 30.324 84.0732 30.186 83.4252 29.91C82.7772 29.622 82.2312 29.244 81.7872 28.776C81.3432 28.308 81.0072 27.78 80.7792 27.192C80.5512 26.592 80.4372 25.974 80.4372 25.338V24.978C80.4372 24.342 80.5512 23.724 80.7792 23.124C81.0192 22.524 81.3612 21.99 81.8052 21.522C82.2612 21.042 82.8132 20.664 83.4612 20.388C84.1092 20.112 84.8472 19.974 85.6752 19.974C86.5032 19.974 87.2352 20.112 87.8712 20.388C88.5192 20.664 89.0712 21.042 89.5272 21.522C89.9832 21.99 90.3252 22.524 90.5532 23.124C90.7932 23.724 90.9132 24.342 90.9132 24.978V25.338C90.9132 25.974 90.7992 26.592 90.5712 27.192C90.3432 27.78 90.0072 28.308 89.5632 28.776C89.1192 29.244 88.5732 29.622 87.9252 29.91C87.2772 30.186 86.5272 30.324 85.6752 30.324ZM85.6752 28.488C86.3352 28.488 86.8992 28.344 87.3672 28.056C87.8352 27.756 88.1892 27.354 88.4292 26.85C88.6812 26.346 88.8072 25.782 88.8072 25.158C88.8072 24.522 88.6812 23.952 88.4292 23.448C88.1772 22.944 87.8172 22.548 87.3492 22.26C86.8812 21.96 86.3232 21.81 85.6752 21.81C85.0272 21.81 84.4692 21.96 84.0012 22.26C83.5332 22.548 83.1732 22.944 82.9212 23.448C82.6692 23.952 82.5432 24.522 82.5432 25.158C82.5432 25.782 82.6632 26.346 82.9032 26.85C83.1552 27.354 83.5152 27.756 83.9832 28.056C84.4512 28.344 85.0152 28.488 85.6752 28.488ZM93.3205 30V20.298H94.9945V24.348H94.9225C94.9225 22.956 95.2285 21.918 95.8405 21.234C96.4525 20.538 97.3585 20.19 98.5585 20.19H98.9005V22.044H98.2525C97.3405 22.044 96.6385 22.29 96.1465 22.782C95.6665 23.262 95.4265 23.952 95.4265 24.852V30H93.3205ZM107.506 30L104.05 25.482H102.538L106.804 20.298H109.036L105.112 25.014L105.202 23.934L109.918 30H107.506ZM100.774 30V16.86H102.88V30H100.774ZM114.651 30.288C113.343 30.288 112.323 30.012 111.591 29.46C110.871 28.908 110.493 28.146 110.457 27.174H112.401C112.425 27.534 112.611 27.864 112.959 28.164C113.307 28.464 113.877 28.614 114.669 28.614C115.341 28.614 115.869 28.482 116.253 28.218C116.637 27.954 116.829 27.624 116.829 27.228C116.829 26.868 116.685 26.586 116.397 26.382C116.121 26.166 115.647 26.022 114.975 25.95L114.021 25.86C113.025 25.752 112.233 25.458 111.645 24.978C111.069 24.498 110.781 23.85 110.781 23.034C110.781 22.386 110.943 21.84 111.267 21.396C111.591 20.952 112.035 20.61 112.599 20.37C113.175 20.13 113.835 20.01 114.579 20.01C115.731 20.01 116.661 20.268 117.369 20.784C118.077 21.288 118.443 22.032 118.467 23.016H116.541C116.517 22.644 116.343 22.332 116.019 22.08C115.695 21.828 115.215 21.702 114.579 21.702C113.979 21.702 113.517 21.822 113.193 22.062C112.881 22.302 112.725 22.608 112.725 22.98C112.725 23.316 112.845 23.58 113.085 23.772C113.325 23.964 113.715 24.09 114.255 24.15L115.209 24.24C116.301 24.36 117.165 24.666 117.801 25.158C118.449 25.638 118.773 26.31 118.773 27.174C118.773 27.798 118.599 28.344 118.251 28.812C117.903 29.28 117.417 29.646 116.793 29.91C116.181 30.162 115.467 30.288 114.651 30.288Z" fill="white"/>
<circle cx="153" cy="23" r="16.5" stroke="#00BD82"/>
<path d="M157.523 22.6568C157.792 22.8104 157.792 23.1986 157.523 23.3519L151.131 26.9908C150.865 27.1427 150.533 26.95 150.533 26.6431L150.537 19.3596C150.537 19.0526 150.868 18.8602 151.135 19.0123L157.523 22.6568Z" fill="#E2F471"/>
</svg>
